<svg version="1.1" id="Vrstva_1" xmlns="http://www.w3.org/2000/svg" xmlns:xlink="http://www.w3.org/1999/xlink" x="0px" y="0px"
	 viewBox="-1.000 -1.000 29.900 36.100" enable-background="new 0 0 27.9 34.1" xml:space="preserve">
<g>
	<path fill="#fff" d="M0.8,7.3c1.9,12.1,10.1,22.1,21,26.7c0.5-0.5,1-1.1,1.4-1.8C12.4,28.4,3.4,18.3,0.8,7.3z"/>
	<path fill="#fff" d="M0,0c3.1,19.2,13.6,26.9,26.3,31.5c0.6-0.7,1.2-1.4,1.7-2.2C14.3,24.5,3.4,14.2,0,0z"/>
	<path fill="#fff" d="M14.2,4.9c-3.7,0-7.1,1.5-9.6,4c4.2,7.7,11.1,13.9,20,17.9c1.9-2.3,3-5.2,3-8.4C27.6,11,21.6,4.9,14.2,4.9z
		 M1.3,14.3c-0.4,1.3-0.6,2.6-0.6,4c0,7.4,6,13.4,13.4,13.4c0.3,0,0.5,0,0.8,0C8.8,27.5,4,21.4,1.3,14.3z"/>
</g>
</svg>
